HIERARCHY
ROOT Hips
{
    OFFSET 0.000000 0.000000 0.000000
    CHANNELS 6 Xposition Yposition Zposition Zrotation Xrotation Yrotation
    JOINT Spine
    {
        OFFSET -0.000000 7.236184 0.000000
        CHANNELS 3 Zrotation Xrotation Yrotation
        JOINT Spine1
        {
            OFFSET -0.000000 20.420147 0.000000
            CHANNELS 3 Zrotation Xrotation Yrotation
            JOINT Neck
            {
                OFFSET -0.000000 20.336288 1.848754
                CHANNELS 3 Zrotation Xrotation Yrotation
                JOINT Head
                {
                    OFFSET -0.000000 12.354461 -1.764923
                    CHANNELS 3 Zrotation Xrotation Yrotation
                    End Site
                    {
                        OFFSET -0.000000 22.061537 0.000000
                    }
                }
            }
            JOINT LeftShoulder
            {
                OFFSET 3.573296 18.396038 -0.314103
                CHANNELS 3 Zrotation Xrotation Yrotation
                JOINT LeftArm
                {
                    OFFSET 10.880760 0.000000 0.000000
                    CHANNELS 3 Zrotation Xrotation Yrotation
                    JOINT LeftForeArm
                    {
                        OFFSET 27.185530 0.000000 0.000000
                        CHANNELS 3 Zrotation Xrotation Yrotation
                        JOINT LeftHand
                        {
                            OFFSET 27.825975 0.000000 0.000000
                            CHANNELS 3 Zrotation Xrotation Yrotation
                            End Site
                            {
                                OFFSET 13.236923 0.000000 0.000000
                            }
                        }
                    }
                }
            }
            JOINT RightShoulder
            {
                OFFSET -3.474926 18.396038 -0.314103
                CHANNELS 3 Zrotation Xrotation Yrotation
                JOINT RightArm
                {
                    OFFSET -10.880760 0.000000 0.000000
                    CHANNELS 3 Zrotation Xrotation Yrotation
                    JOINT RightForeArm
                    {
                        OFFSET -27.185530 0.000000 0.000000
                        CHANNELS 3 Zrotation Xrotation Yrotation
                        JOINT RightHand
                        {
                            OFFSET -27.825975 0.000000 0.000000
                            CHANNELS 3 Zrotation Xrotation Yrotation
                            End Site
                            {
                                OFFSET -13.236923 0.000000 0.000000
                            }
                        }
                    }
                }
            }
        }
    }
    JOINT LeftUpLeg
    {
        OFFSET 8.824615 0.000000 0.000000
        CHANNELS 3 Zrotation Xrotation Yrotation
        JOINT LeftLeg
        {
            OFFSET -0.000000 -35.111282 0.000000
            CHANNELS 3 Zrotation Xrotation Yrotation
            JOINT LeftFoot
            {
                OFFSET -0.000000 -42.324711 0.000000
                CHANNELS 3 Zrotation Xrotation Yrotation
                JOINT LeftToeBase
                {
                    OFFSET -0.000000 -5.735999 13.236923
                    CHANNELS 3 Zrotation Xrotation Yrotation
                    End Site
                    {
                        OFFSET -0.000000 0.000000 3.529846
                    }
                }
            }
        }
    }
    JOINT RightUpLeg
    {
        OFFSET -8.824615 0.000000 0.000000
        CHANNELS 3 Zrotation Xrotation Yrotation
        JOINT RightLeg
        {
            OFFSET -0.000000 -35.111282 0.000000
            CHANNELS 3 Zrotation Xrotation Yrotation
            JOINT RightFoot
            {
                OFFSET -0.000000 -42.324711 0.000000
                CHANNELS 3 Zrotation Xrotation Yrotation
                JOINT RightToeBase
                {
                    OFFSET -0.000000 -5.735999 13.236923
                    CHANNELS 3 Zrotation Xrotation Yrotation
                    End Site
                    {
                        OFFSET -0.000000 0.000000 3.529846
                    }
                }
            }
        }
    }
}
MOTION
Frames:    7
Frame Time:    0.008333
-4.110731    85.790131    103.775833    -1.395576    -4.212775    -178.991379    -3.256134    -9.630625    0.618669    0.131465    4.095874    0.888365    3.677974    -0.839368    5.345634    4.725382    -16.329855    6.309503    -3.351613    19.247942    -2.010584    -31.236031    47.742386    -47.914291    14.598434    3.172267    -27.110918    47.425495    4.363181    -5.337891    9.190791    17.498499    -6.089349    17.599638    52.613647    56.293983    -8.861305    -7.634204    37.745937    -21.776945    -5.092998    2.491786    -2.542769    -16.219170    -7.666444    -0.345090    32.354939    12.917630    -7.435508    -2.610357    -17.908888    0.256753    -5.912212    -0.287822    -4.113608    -12.461587    -3.750819    5.953522    28.476450    -2.311157    6.277310    -1.408655    -6.817371    -1.238515    -9.962938    1.359791    
-4.162445    86.199364    103.776871    -1.517383    -4.392570    -178.972260    -3.279296    -9.587434    0.614342    0.112653    3.870710    0.885671    3.629612    -1.078497    5.339737    4.556901    -16.369015    6.257452    -3.217626    19.128685    -2.083619    -30.947084    47.940952    -47.819740    15.181248    2.935870    -28.520496    47.613163    4.378441    -5.519073    9.006407    17.411314    -5.928709    16.981476    52.960213    56.514256    -9.586357    -7.825113    39.310604    -21.660742    -4.899361    2.557730    -2.567876    -16.179625    -7.493633    -0.368755    31.709116    12.880496    -7.424541    -1.305050    -18.006481    0.333659    -6.103182    -0.374177    -4.247725    -12.369391    -3.485403    5.990644    27.740520    -2.698875    6.655915    -0.338252    -6.796417    -1.281612    -10.101924    1.407432    
-4.217178    86.586472    103.786209    -1.625686    -4.576204    -178.949219    -3.290601    -9.540379    0.604965    0.097885    3.666823    0.876528    3.587268    -1.324193    5.343983    4.397366    -16.436342    6.218423    -3.088398    19.017233    -2.155964    -30.656452    48.158371    -47.770073    15.757013    2.659499    -29.863693    47.848698    4.366391    -5.675818    8.836049    17.329138    -5.774674    16.465021    53.240753    56.671455    -10.293496    -8.054727    40.794590    -21.598955    -4.736127    2.621450    -2.594877    -16.169073    -7.384303    -0.421072    31.109921    12.915346    -7.402132    -0.059081    -18.096184    0.403131    -6.259937    -0.452226    -4.366794    -12.314277    -3.220318    6.027654    27.058151    -3.093497    6.992578    0.699535    -6.810330    -1.321635    -10.222218    1.451675    
-4.273638    86.942268    103.803925    -1.716914    -4.760439    -178.923248    -3.288300    -9.488400    0.591571    0.087192    3.485354    0.862040    3.552220    -1.571937    5.358113    4.249372    -16.529200    6.192570    -2.967319    18.915871    -2.226669    -30.371861    48.392277    -47.771778    16.315493    2.354694    -31.108553    48.121677    4.328864    -5.810749    8.684061    17.254618    -5.630276    16.054293    53.454296    56.771862    -10.965739    -8.309916    42.171909    -21.590424    -4.602460    2.684876    -2.621364    -16.190132    -7.329951    -0.492380    30.573095    13.006425    -7.371079    1.097004    -18.178074    0.464133    -6.381076    -0.520785    -4.467298    -12.300812    -2.978269    6.055343    26.451090    -3.463437    7.282825    1.676311    -6.855049    -1.355846    -10.319853    1.489492    
-4.331337    87.264191    103.830193    -1.789913    -4.945202    -178.895493    -3.271633    -9.429557    0.575422    0.080461    3.322822    0.843040    3.525254    -1.819008    5.382177    4.112047    -16.647442    6.179547    -2.856594    18.825649    -2.295034    -30.098202    48.640343    -47.827015    16.854446    2.031780    -32.247215    48.425804    4.269773    -5.929625    8.551139    17.189140    -5.496125    15.743934    53.605125    56.825253    -11.598255    -8.581230    43.441719    -21.630373    -4.494897    2.750260    -2.645545    -16.245249    -7.318122    -0.574106    30.104340    13.137516    -7.333370    2.153992    -18.254223    0.517032    -6.469398    -0.580245    -4.547889    -12.332847    -2.772593    6.067919    25.929611    -3.786493    7.528026    2.579989    -6.928443    -1.381932    -10.394569    1.518340    
-4.389411    87.547485    103.864960    -1.843739    -5.129663    -178.867676    -3.240881    -9.363465    0.557618    0.077826    3.177484    0.820957    3.507385    -2.061473    5.416235    3.985254    -16.789572    6.179171    -2.759571    18.748026    -2.359312    -29.844332    48.896160    -47.934654    17.366743    1.705746    -33.265739    48.754459    4.194969    -6.038184    8.438965    17.133907    -5.373960    15.530073    53.696522    56.840462    -12.181967    -8.857696    44.595005    -21.712229    -4.411045    2.818466    -2.665854    -16.336582    -7.340175    -0.660626    29.711628    13.297663    -7.291842    3.097009    -18.327072    0.561787    -6.528471    -0.630546    -4.607369    -12.414512    -2.610913    6.063564    25.506927    -4.044178    7.727241    3.391822    -7.030141    -1.397491    -10.446309    1.535565    
-4.447275    87.788727    103.908089    -1.879119    -5.313288    -178.842041    -3.197153    -9.289043    0.539347    0.078295    3.046165    0.797170    3.499897    -2.294835    5.460762    3.868568    -16.955673    6.191667    -2.679133    18.684586    -2.417631    -29.619373    49.152302    -48.090141    17.846388    1.391575    -34.156319    49.101563    4.110934    -6.142715    8.349257    17.089964    -5.264585    15.407131    53.732365    56.825569    -12.710096    -9.129191    45.628109    -21.827751    -4.347866    2.889135    -2.682000    -16.465008    -7.392310    -0.750174    29.399532    13.482018    -7.250336    3.916514    -18.398537    0.598497    -6.564593    -0.671798    -4.646136    -12.549334    -2.493907    6.043189    25.193325    -4.224784    7.880350    4.096368    -7.161119    -1.400718    -10.475572    1.539187    
